<?xml version="1.0" standalone="no"?>
<!DOCTYPE svg PUBLIC "-//W3C//DTD SVG 20010904//EN"
 "http://www.w3.org/TR/2001/REC-SVG-20010904/DTD/svg10.dtd">
<svg version="1.0" xmlns="http://www.w3.org/2000/svg"
 width="64.000000pt" height="64.000000pt" viewBox="0 0 64.000000 64.000000"
 preserveAspectRatio="xMidYMid meet">

<g transform="translate(0.000000,64.000000) scale(0.100000,-0.100000)"
fill="#000000" stroke="none">
<path d="M261 629 c-149 -30 -254 -157 -254 -309 0 -89 28 -156 92 -221 65
-64 132 -92 221 -92 89 0 156 28 221 92 64 65 92 132 92 221 0 196 -182 348
-372 309z m168 -45 c124 -52 199 -190 171 -317 -6 -28 -22 -72 -37 -96 l-26
-44 -23 45 c-21 42 -62 85 -100 106 -13 7 -12 14 10 47 80 117 -51 258 -171
185 -65 -39 -81 -120 -37 -185 22 -33 23 -40 10 -47 -38 -21 -79 -64 -100
-106 l-23 -45 -26 44 c-58 99 -56 214 6 306 77 114 222 159 346 107z m-60 -98
c47 -25 63 -83 37 -135 -35 -66 -137 -66 -172 0 -47 92 43 182 135 135z m27
-235 c49 -22 93 -76 101 -124 5 -34 4 -35 -53 -63 -80 -39 -167 -39 -247 0
-49 24 -57 31 -57 55 0 41 54 109 103 132 53 24 101 24 153 0z"/>
</g>
</svg>
